<?xml version="1.0" encoding="utf-8" standalone="no"?>
<!DOCTYPE svg PUBLIC "-//W3C//DTD SVG 1.1//EN" "http://www.w3.org/Graphics/SVG/1.1/DTD/svg11.dtd">
<svg version="1.1" width="87874.08pt" height="87874.08pt" viewBox="0 0 87874.08 87874.08" overflow="visible" xmlns="http://www.w3.org/2000/svg">
  <path d="M19334.42,41281.2 C19333.78,40947.74 19395.28,40586.7 19533.31,40237.89 C19602.33,40063.48 19690.48,39892.14 19796.48,39730.05 C19902.48,39567.96 20026.33,39415.14 20164.67,39276.8 C20303,39138.46 20455.83,39014.61 20617.92,38908.61 C20780,38802.61 20951.35,38714.46 21125.75,38645.45 C21474.56,38507.41 21835.6,38445.91 22169.06,38446.55 L66056.16,38446.55 C66389.63,38445.91 66750.67,38507.41 67099.48,38645.45 C67273.88,38714.46 67445.23,38802.61 67607.31,38908.61 C67769.4,39014.61 67922.23,39138.46 68060.56,39276.8 C68198.9,39415.14 68322.75,39567.96 68428.75,39730.05 C68534.75,39892.14 68622.9,40063.48 68691.91,40237.89 C68829.95,40586.7 68891.45,40947.74 68890.81,41281.2 L68890.81,46837.39 C68891.45,47170.85 68829.95,47531.89 68691.91,47880.7 C68622.9,48055.11 68534.75,48226.45 68428.75,48388.54 C68322.75,48550.62 68198.9,48703.45 68060.56,48841.79 C67922.23,48980.13 67769.4,49103.97 67607.31,49209.97 C67445.23,49315.97 67273.88,49404.12 67099.48,49473.14 C66750.67,49611.17 66389.63,49672.67 66056.16,49672.04 L22169.06,49672.04 C21835.6,49672.67 21474.56,49611.17 21125.75,49473.14 C20951.35,49404.12 20780,49315.97 20617.92,49209.97 C20455.83,49103.97 20303,48980.13 20164.67,48841.79 C20026.33,48703.45 19902.48,48550.62 19796.48,48388.54 C19690.48,48226.45 19602.33,48055.11 19533.31,47880.7 C19395.28,47531.89 19333.78,47170.85 19334.42,46837.39 z" stroke="Black" stroke-width="0" fill="#000000" fill-opacity="1" />
  <path d="M19334.42,41281.2 L19334.42,46837.39 C19333.78,47170.85 19395.28,47531.89 19533.31,47880.7 C19602.33,48055.11 19690.48,48226.45 19796.48,48388.54 C19902.48,48550.62 20026.33,48703.45 20164.67,48841.79 C20303,48980.13 20455.83,49103.97 20617.92,49209.97 C20780,49315.97 20951.35,49404.12 21125.75,49473.14 C21474.56,49611.17 21835.6,49672.67 22169.06,49672.04 L66056.16,49672.04 C66389.63,49672.67 66750.67,49611.17 67099.48,49473.14 C67273.88,49404.12 67445.23,49315.97 67607.31,49209.97 C67769.4,49103.97 67922.23,48980.13 68060.56,48841.79 C68198.9,48703.45 68322.75,48550.62 68428.75,48388.54 C68534.75,48226.45 68622.9,48055.11 68691.91,47880.7 C68829.95,47531.89 68891.45,47170.85 68890.81,46837.39 L68890.81,41281.2 C68891.45,40947.74 68829.95,40586.7 68691.91,40237.89 C68622.9,40063.48 68534.75,39892.14 68428.75,39730.05 C68322.75,39567.96 68198.9,39415.14 68060.56,39276.8 C67922.23,39138.46 67769.4,39014.61 67607.31,38908.61 C67445.23,38802.61 67273.88,38714.46 67099.48,38645.45 C66750.67,38507.41 66389.63,38445.91 66056.16,38446.55 L22169.06,38446.55 C21835.6,38445.91 21474.56,38507.41 21125.75,38645.45 C20951.35,38714.46 20780,38802.61 20617.92,38908.61 C20455.83,39014.61 20303,39138.46 20164.67,39276.8 C20026.33,39415.14 19902.48,39567.96 19796.48,39730.05 C19690.48,39892.14 19602.33,40063.48 19533.31,40237.89 C19395.28,40586.7 19333.78,40947.74 19334.42,41281.2 z" stroke="#000000" stroke-width="0.24" fill="none" />
  <path d="M9921.292,86456.73 L77952.79,86456.73 C78453.77,86456.79 78973.71,86412.23 79500.19,86314.76 C80026.67,86217.27 80559.7,86066.87 81083.04,85859.65 C81606.39,85652.43 82120.06,85388.39 82606.23,85070.61 C82849.32,84911.72 83085.52,84739.39 83312.8,84554.84 C83540.08,84370.3 83758.42,84173.53 83965.98,83965.98 C84173.53,83758.42 84370.3,83540.08 84554.84,83312.8 C84739.39,83085.52 84911.72,82849.32 85070.61,82606.23 C85388.39,82120.06 85652.43,81606.39 85859.65,81083.04 C86066.87,80559.7 86217.27,80026.67 86314.76,79500.19 C86412.23,78973.71 86456.79,78453.77 86456.73,77952.79 L86456.73,9921.292 C86456.79,9420.313 86412.23,8900.372 86314.76,8373.89 C86217.27,7847.408 86066.87,7314.385 85859.65,6791.038 C85652.43,6267.69 85388.39,5754.017 85070.61,5267.847 C84911.72,5024.762 84739.39,4788.553 84554.84,4561.276 C84370.3,4334 84173.53,4115.656 83965.98,3908.1 C83758.42,3700.545 83540.08,3503.779 83312.8,3319.233 C83085.52,3134.688 82849.32,2962.362 82606.23,2803.472 C82120.06,2485.691 81606.39,2221.653 81083.04,2014.431 C80559.7,1807.209 80026.67,1656.804 79500.19,1559.325 C78973.71,1461.846 78453.77,1417.293 77952.79,1417.355 L9921.292,1417.355 C9420.313,1417.293 8900.372,1461.846 8373.89,1559.325 C7847.408,1656.804 7314.385,1807.209 6791.038,2014.431 C6267.69,2221.653 5754.017,2485.691 5267.847,2803.472 C5024.762,2962.362 4788.553,3134.688 4561.276,3319.233 C4334,3503.779 4115.656,3700.545 3908.1,3908.1 C3700.545,4115.656 3503.779,4334 3319.233,4561.276 C3134.688,4788.553 2962.362,5024.762 2803.472,5267.847 C2485.691,5754.017 2221.653,6267.69 2014.431,6791.038 C1807.209,7314.385 1656.804,7847.408 1559.325,8373.89 C1461.846,8900.372 1417.293,9420.313 1417.355,9921.292 L1417.355,77952.79 C1417.293,78453.77 1461.846,78973.71 1559.325,79500.19 C1656.804,80026.67 1807.209,80559.7 2014.431,81083.04 C2221.653,81606.39 2485.691,82120.06 2803.472,82606.23 C2962.362,82849.32 3134.688,83085.52 3319.233,83312.8 C3503.779,83540.08 3700.545,83758.42 3908.1,83965.98 C4115.656,84173.53 4334,84370.3 4561.276,84554.84 C4788.553,84739.39 5024.762,84911.72 5267.847,85070.61 C5754.017,85388.39 6267.69,85652.43 6791.038,85859.65 C7314.385,86066.87 7847.408,86217.27 8373.89,86314.76 C8900.372,86412.23 9420.313,86456.79 9921.292,86456.73 z" stroke="#000000" stroke-width="0.24" fill="none" />
</svg>